PathFileType	4	(X/Y/Z)	C:/Users/opensim2020/Desktop/walking_exp_matlab/subject01_walking07_straight_02.trc																																																																																																																															
DataRate	CameraRate	NumFrames	NumMarkers	Units	OrigDataRate	OrigDataStartFrame	OrigNumFrames																																																																																																																											
100	100	4	43	mm	100	1473	178																																																																																																																											
Frame#	Time	LFHD			RFHD			LBHD			RBHD			C7			T10			CLAV			STRN			RBAK			LSHO			LUPA			LELB			LFRM			LWRA			LWRB			LFIN			RSHO			RUPA			RELB			RFRM			RWRA			RWRB			RFIN			LASI			RASI			LPSI			RPSI			LTHI			LKNE			LTIB			LANK			LHEE			LTOE			RTHI			RKNE			RTIB			RANK			RHEE			RTOE			*39			*40			*41			*42		
		X1	Y1	Z1	X2	Y2	Z2	X3	Y3	Z3	X4	Y4	Z4	X5	Y5	Z5	X6	Y6	Z6	X7	Y7	Z7	X8	Y8	Z8	X9	Y9	Z9	X10	Y10	Z10	X11	Y11	Z11	X12	Y12	Z12	X13	Y13	Z13	X14	Y14	Z14	X15	Y15	Z15	X16	Y16	Z16	X17	Y17	Z17	X18	Y18	Z18	X19	Y19	Z19	X20	Y20	Z20	X21	Y21	Z21	X22	Y22	Z22	X23	Y23	Z23	X24	Y24	Z24	X25	Y25	Z25	X26	Y26	Z26	X27	Y27	Z27	X28	Y28	Z28	X29	Y29	Z29	X30	Y30	Z30	X31	Y31	Z31	X32	Y32	Z32	X33	Y33	Z33	X34	Y34	Z34	X35	Y35	Z35	X36	Y36	Z36	X37	Y37	Z37	X38	Y38	Z38	X39	Y39	Z39	X40	Y40	Z40	X41	Y41	Z41	X42	Y42	Z42	X43	Y43	Z43
																																																																																																																																		
45	0.44	-547.69708	1667.37561	988.73346	-513.3045	1677.18298	1098.88123	-659.78839	1622.22009	1020.70612	-627.52905	1632.24158	1137.36621	-689.6347	1429.59631	1060.57324	-720.69843	1135.95435	1071.92957	-545.52344	1363.86548	1058.04639	-500.06451	1209.90967	1057.90991	-740.08002	1237.94275	1143.55261	-609.08447	1388.44812	897.33783	-650.34888	1203.22876	817.41693	-679.87549	1056.98364	822.4975	-661.91547	944.96625	797.789	-610.03839	814.65594	820.47955	-662.02606	822.41425	790.36633	-632.79291	740.61731	790.45313	-602.72742	1398.30054	1210.77759	-662.11914	1202.00659	1315.59485	-660.19818	1076.83142	1325.10803	-620.85474	963.09387	1361.21399	-526.89893	857.9848	1349.96997	-571.97314	852.49854	1386.46716	-524.89136	778.86804	1383.33667	-537.91058	936.88629	967.67218	-551.81805	927.49579	1184.27698	-726.78534	945.14331	1008.12683	-733.50989	944.13763	1153.1676	-520.53735	609.85724	914.52728	-509.276	476.56094	936.77191	-543.38275	288.15414	930.67865	-551.46863	72.953	991.12738	-593.99084	43.36069	1045.51025	-404.61398	39.58773	984.53857	-609.41852	589.85443	1247.96863	-616.32776	431.62564	1233.49438	-769.00092	342.58514	1232.32361	-922.81995	205.75439	1182.11584	-970.13452	226.0822	1126.05908	-898.86658	60.55527	1168.23242	-529.99982	1709.79065	1077.13354	-1973.08386	1023.19348	3101.8894	-2012.54395	1021.87402	3140.64014	NaN	NaN	NaN
46	0.45	-537.68085	1668.10352	987.67792	-503.47501	1677.92944	1097.8678	-649.78741	1622.98474	1019.47284	-617.77362	1633.02612	1136.14868	-679.72845	1430.58923	1059.44604	-711.3811	1136.94177	1070.88269	-535.78204	1364.53882	1057.22778	-490.62244	1210.43494	1057.22522	-730.65656	1238.97925	1142.33752	-598.95837	1388.96924	896.49615	-638.13831	1203.49048	816.2334	-666.49615	1056.62952	820.88879	-645.78284	944.87421	796.24841	-590.91071	815.83521	819.40009	-643.02179	822.28821	788.979	-611.80286	741.48999	789.12042	-592.9361	1398.95349	1209.97815	-653.75568	1202.94348	1314.35803	-652.96021	1077.75989	1323.28943	-615.92566	963.16962	1359.1554	-524.02551	856.25848	1347.70935	-569.17053	851.58331	1384.10791	-523.64954	776.85956	1380.61816	-529.29016	937.44989	966.55945	-542.57355	928.28021	1183.41443	-718.15186	945.7226	1007.73145	-724.6394	943.3786	1152.70569	-515.36676	609.56226	913.61322	-505.57281	476.02115	936.00458	-541.14093	287.90002	930.12329	-551.34967	73.03564	991.13275	-593.96503	43.44829	1045.57031	-404.40988	39.39987	984.49432	-592.73645	590.3927	1247.66931	-595.71765	432.41397	1233.23108	-748.45972	344.27182	1232.80872	-905.23682	212.08694	1182.11255	-952.19183	233.75819	1125.77551	-885.27338	66.13506	1170.18396	-520.0437	1710.73022	1076.23755	-1973.13538	1023.18683	3101.8147	-2012.49951	1021.93835	3140.59766	NaN	NaN	NaN
47	0.46	-527.69214	1668.71716	986.70026	-493.65579	1678.63855	1096.99023	-639.87354	1623.68103	1018.34039	-608.02606	1633.78821	1135.10242	-669.83716	1431.54858	1058.38696	-702.14886	1137.95911	1069.95532	-526.08142	1365.10449	1056.58887	-481.2153	1210.87793	1056.58972	-721.23279	1240.05542	1141.14319	-588.77087	1389.47986	895.68494	-626.10413	1203.88647	815.16504	-653.08154	1056.46509	819.15723	-629.63159	944.93384	794.6889	-571.87213	817.46454	817.95508	-623.86908	822.50665	787.448	-590.4679	742.66895	787.71539	-583.43793	1399.78491	1209.2782	-645.43866	1203.87402	1313.31348	-645.88165	1078.67395	1321.63086	-610.96454	963.42041	1357.10767	-521.21661	854.55151	1345.36133	-566.46686	850.86005	1381.95679	-522.52747	774.97327	1377.89697	-520.83185	937.74689	965.48749	-533.21796	929.30286	1182.66675	-709.65027	945.99939	1007.45813	-715.62042	942.5907	1152.31409	-510.44687	609.20593	912.83801	-501.82166	475.64258	935.25366	-538.69751	287.70166	929.73761	-551.26062	73.05362	991.18085	-593.92853	43.48398	1045.62048	-404.14117	39.21056	984.43561	-576.17816	591.61475	1247.09729	-575.27991	433.5784	1232.78674	-728.0047	346.16321	1233.07117	-887.18237	217.51067	1181.901	-934.11914	238.95744	1124.85303	-869.47992	70.76109	1172.02405	-510.18442	1711.48584	1075.26709	-1973.13708	1023.33612	3102.04761	-2012.46936	1021.90985	3140.73755	NaN	NaN	NaN
48	0.47	-517.69147	1669.34741	985.86176	-483.86328	1679.34509	1096.19165	-629.93988	1624.35034	1017.32562	-598.3078	1634.53894	1134.16748	-660.02515	1432.37549	1057.43665	-693.06763	1138.93628	1069.11304	-516.44757	1365.6947	1056.01062	-471.89273	1211.25269	1056.0531	-711.97772	1241.07043	1140.02209	-578.58923	1390.0636	895.07172	-613.94495	1204.34851	814.30646	-639.60687	1056.18616	817.39178	-613.45691	945.23877	793.19745	-552.53174	819.3454	816.63062	-604.6452	822.98865	786.14819	-568.99927	744.27075	786.15833	-573.73126	1400.29956	1208.40625	-637.22357	1204.67749	1312.11719	-638.61475	1079.53613	1320.03833	-606.02301	963.578	1355.0321	-518.50037	853.10675	1343.05725	-563.81201	850.12744	1379.797	-521.48199	773.32745	1375.27844	-512.32208	938.16852	964.33612	-524.0484	930.20453	1181.91638	-701.16602	946.31744	1007.3233	-706.80731	941.96173	1152.0459	-505.50729	608.77655	912.29999	-497.97324	475.2189	934.74939	-536.07147	287.56659	929.46265	-551.06982	73.11958	991.32819	-593.93567	43.51738	1045.66602	-404.15872	39.15159	984.36224	-559.76978	592.79034	1246.91772	-554.8761	435.17822	1232.54089	-707.49829	348.04568	1232.90564	-868.70056	222.29634	1181.36621	-915.48364	243.38264	1123.93469	-851.02985	75.72906	1174.36743	-500.34515	1712.02319	1074.35767	-1973.12097	1023.33221	3101.78638	-2012.57458	1021.95227	3140.6521	NaN	NaN	NaN
